# xmcd
#
# Track frame offsets: 
#        150
#        17480
#        33863
#        51058
#        69082
#        84430
#        101936
#        114747
#        133626
#        154087
#        171945
#
# Disc length: 2551 seconds
#
# Revision: 12
# Processed by: cddbd v1.5.2PL0 Copyright (c) Steve Scherf et al.
# Submitted via: ExactAudioCopyFreeDBPlugin 1.0
#
DISCID=8509f50b
DTITLE=Океан Ельзи - Суперсиметрія (LM CD-400)
DYEAR=2003
DGENRE=Rock
TTITLE0=Кішка
TTITLE1=Дівчина (з іншого життя)
TTITLE2=Вільний
TTITLE3=Susy
TTITLE4=Мене
TTITLE5=Для тебе
TTITLE6=Леді
TTITLE7=Майже весна
TTITLE8=Холодно
TTITLE9=Віддам
TTITLE10=Невидима сім'я
EXTD=YEAR: 2003
EXTT0=
EXTT1=
EXTT2=
EXTT3=
EXTT4=
EXTT5=
EXTT6=
EXTT7=
EXTT8=
EXTT9=
EXTT10=
PLAYORDER=
